<?xml version="1.0" encoding="UTF-8"?>
<svg version="1.1" xmlns="http://www.w3.org/2000/svg" viewBox="380 340 760 250">
<path d="M0 0 C5.28 0 10.56 0 16 0 C18.67706633 5.2797061 21.34606051 10.56338669 24.0078125 15.85083008 C24.9135077 17.64717947 25.82135873 19.44244369 26.73144531 21.23657227 C28.04286509 23.82282407 29.34635806 26.41294189 30.6484375 29.00390625 C31.25635635 30.19651817 31.25635635 30.19651817 31.8765564 31.41322327 C34.11483728 35.8884512 35.79564146 40.14015885 37 45 C36.55269531 45.32871094 36.10539063 45.65742188 35.64453125 45.99609375 C30.67562892 49.90552863 26.94509419 53.8880818 25 60 C23.96727325 69.23552775 24.06855647 76.74903749 29.69921875 84.26953125 C34.27575858 89.83510719 39.01273438 94.35568807 46.42456055 95.31323242 C48.96225146 95.39138729 51.46335144 95.35131008 54 95.25 C54.87011719 95.23195313 55.74023438 95.21390625 56.63671875 95.1953125 C58.75829907 95.14868436 60.87930335 95.07696077 63 95 C63.556875 96.1859375 64.11375 97.371875 64.6875 98.59375 C65.45823536 100.22921284 66.22907446 101.8646268 67 103.5 C67.36222656 104.27214844 67.72445313 105.04429687 68.09765625 105.83984375 C70.87255378 111.71886393 73.75868408 117.53877695 76.67419434 123.34890747 C80.88327792 131.74562939 85.02171863 140.17680703 89.1484375 148.61425781 C90.06214723 150.48062878 90.97755777 152.3461679 91.89453125 154.2109375 C93.23553635 156.93827746 94.57146966 159.66804681 95.90625 162.3984375 C96.31862915 163.23474701 96.7310083 164.07105652 97.15588379 164.93270874 C97.53047729 165.70176544 97.9050708 166.47082214 98.29101562 167.26318359 C98.62218384 167.93884369 98.95335205 168.61450378 99.29455566 169.31063843 C100 171 100 171 100 173 C78.88 173 57.76 173 36 173 C30.5625 156.5625 30.5625 156.5625 28.84985352 151.36938477 C28.40144252 150.01831288 27.95280884 148.66731488 27.50390625 147.31640625 C27.27151245 146.60899292 27.03911865 145.90157959 26.79968262 145.17272949 C25.87370133 141.82205799 25.87370133 141.82205799 24 139 C24 137.35 24 135.7 24 134 C27.63 134 31.26 134 35 134 C34.34 132.68 33.68 131.36 33 130 C33 129.01 33 128.02 33 127 C29.04 127 25.08 127 21 127 C20.49339844 125.42798828 20.49339844 125.42798828 19.9765625 123.82421875 C19.52628179 122.44523407 19.07574769 121.06633211 18.625 119.6875 C18.40328125 118.99720703 18.1815625 118.30691406 17.953125 117.59570312 C16.90066609 114.39189438 15.88243873 111.82365809 14 109 C13.51553314 107.36737467 13.08391983 105.718708 12.6875 104.0625 C11.05620279 97.77275611 8.62026609 91.93443664 6 86 C5.75765625 86.83402344 5.5153125 87.66804688 5.265625 88.52734375 C4.93046875 89.65269531 4.5953125 90.77804687 4.25 91.9375 C3.92515625 93.03964844 3.6003125 94.14179688 3.265625 95.27734375 C2.05156404 98.84833171 0.60731188 102.18383867 -0.95214844 105.61108398 C-2.74145112 109.69037727 -4.2360982 113.87490467 -5.75 118.0625 C-6.06582031 118.92810547 -6.38164063 119.79371094 -6.70703125 120.68554688 C-7.47416745 122.78935978 -8.23844379 124.89416224 -9 127 C-9.69722168 127.03665771 -10.39444336 127.07331543 -11.11279297 127.11108398 C-12.02174316 127.17626221 -12.93069336 127.24144043 -13.8671875 127.30859375 C-14.77065918 127.36587646 -15.67413086 127.42315918 -16.60498047 127.48217773 C-19.3744082 127.79575605 -19.3744082 127.79575605 -21.125 131.0625 C-21.41375 132.031875 -21.7025 133.00125 -22 134 C-18.04 134 -14.08 134 -10 134 C-12.14551726 141.32157766 -14.49444989 148.54418858 -17 155.75 C-17.34289062 156.75160156 -17.68578125 157.75320313 -18.0390625 158.78515625 C-18.37679687 159.75839844 -18.71453125 160.73164062 -19.0625 161.734375 C-19.36285156 162.60288086 -19.66320312 163.47138672 -19.97265625 164.36621094 C-21.12666941 167.32474086 -22.5798137 170.15962739 -24 173 C-44.13 173 -64.26 173 -85 173 C-83.01258597 167.03775792 -81.34665349 162.35031748 -78.49609375 156.953125 C-78.01016502 156.02448639 -78.01016502 156.02448639 -77.51441956 155.0770874 C-76.49504789 153.13135081 -75.46684778 151.19047439 -74.4375 149.25 C-73.40613034 147.2944787 -72.37672928 145.33795881 -71.34986877 143.38006592 C-70.42255777 141.61365736 -69.48963994 139.85019553 -68.55639648 138.08691406 C-67.21469676 135.42582366 -66.05081828 132.78614732 -65 130 C-64.34 130 -63.68 130 -63 130 C-62.93554688 129.20464844 -62.87109375 128.40929687 -62.8046875 127.58984375 C-61.7199404 122.7506079 -59.50071288 118.88712194 -57.125 114.5625 C-52.99736999 106.88236818 -49.08898438 99.13842904 -45.375 91.25 C-42.2275223 84.58139925 -39.00674667 77.98720682 -35.5 71.5 C-31.56738988 64.21482881 -27.98958579 56.78755329 -24.44848633 49.30541992 C-19.01797651 37.86400456 -13.32048622 26.55843757 -7.63037109 15.24462891 C-5.07897374 10.16705016 -2.5397783 5.08339893 0 0 Z " fill="#6FAA2E" transform="translate(966,396)"/>
<path d="M0 0 C0.13229213 18.03261393 0.26273752 36.06524031 0.39115143 54.09788227 C0.45085494 62.47614977 0.51110751 70.85441257 0.57275391 79.23266602 C1.10252599 151.31050669 1.10252599 151.31050669 1 187 C5.14409573 185.95746579 5.14409573 185.95746579 8.28857422 183.34619141 C8.5413916 182.68796387 8.79420898 182.02973633 9.0546875 181.3515625 C9.35511963 180.60374512 9.65555176 179.85592773 9.96508789 179.08544922 C10.41549438 177.86752686 10.41549438 177.86752686 10.875 176.625 C11.20814209 175.7808252 11.54128418 174.93665039 11.88452148 174.06689453 C12.58669523 172.28322504 13.27945757 170.49582557 13.96337891 168.70507812 C15.2888271 165.24630139 16.67172823 161.81206026 18.0559082 158.37646484 C19.06211324 155.87596114 20.05919576 153.37197316 21.0546875 150.8671875 C24.33504102 142.63523355 27.71905173 134.44465568 31.14306641 126.27148438 C34.16847924 119.04260096 37.10525437 111.78209448 40 104.5 C48.72727273 82.54545455 48.72727273 82.54545455 52 76 C58.6 76 65.2 76 72 76 C70.67630289 79.97109134 69.33460807 83.75905225 67.75 87.61328125 C67.31179932 88.68304199 66.87359863 89.75280273 66.42211914 90.85498047 C65.95281982 91.99596191 65.48352051 93.13694336 65 94.3125 C63.9980008 96.75883274 62.99649996 99.20536007 61.99609375 101.65234375 C61.61643715 102.58055939 61.61643715 102.58055939 61.22911072 103.52752686 C58.80470812 109.46262857 56.43139441 115.41758716 54.0625 121.375 C49.86781123 131.90988816 45.54805114 142.39068324 41.19750977 152.86181641 C38.58997388 159.14188404 36.00220615 165.42719422 33.5 171.75 C32.07376239 175.35290838 30.61461802 178.91528893 29 182.4375 C26.04728249 189.17338681 23.58238609 196.11363711 21 203 C2.19 203 -16.62 203 -36 203 C-36 141.62 -36 80.24 -36 17 C-3.7 0 -3.7 0 0 0 Z " fill="#2E2E2E" transform="translate(496,366)"/>
<path d="M0 0 C11.22 0 22.44 0 34 0 C34 42.24 34 84.48 34 128 C22.78 128 11.56 128 0 128 C0 85.76 0 43.52 0 0 Z " fill="#303030" transform="translate(1075,441)"/>
<path d="M0 0 C6.36973172 5.84531605 9.63247585 11.91242511 10.26213074 20.62863159 C10.38490983 25.03520632 10.33788435 29.44020858 10.29296875 33.84765625 C10.28736428 35.47146714 10.28309821 37.09528315 10.28010559 38.71910095 C10.26872373 42.96554903 10.23931504 47.21168279 10.20599365 51.45800781 C10.17514809 55.8020401 10.16156948 60.14612383 10.14648438 64.49023438 C10.11443791 72.99364896 10.06172557 81.49674901 10 90 C4.39 90 -1.22 90 -7 90 C-7.0093457 87.94644287 -7.01869141 85.89288574 -7.02832031 83.77709961 C-7.06215839 76.97563106 -7.11774504 70.17446375 -7.18390274 63.37323666 C-7.22333341 59.2514943 -7.25554329 55.12996417 -7.27099609 51.00805664 C-7.28619208 47.02665613 -7.32068882 43.04583923 -7.36830902 39.06469917 C-7.38309269 37.54939421 -7.39103928 36.03400591 -7.39188385 34.51862907 C-7.31048781 23.59910671 -7.31048781 23.59910671 -12 14 C-12 13.34 -12 12.68 -12 12 C-19.09200207 8.18122966 -25.07942175 7.69449198 -33 8 C-34.07507813 7.97486328 -34.07507813 7.97486328 -35.171875 7.94921875 C-40.87288094 8.0974449 -43.94919928 11.02191225 -48.01953125 14.796875 C-53.03063742 20.37135997 -54.10435952 25.00209122 -54.20532227 32.32910156 C-54.22526749 33.61012756 -54.24521271 34.89115356 -54.26576233 36.21099854 C-54.28274409 37.60420614 -54.29962299 38.99741499 -54.31640625 40.390625 C-54.33698794 41.81980983 -54.35798473 43.24898873 -54.37937927 44.67816162 C-54.43447449 48.4329345 -54.48393888 52.18776118 -54.53222656 55.94262695 C-54.58253345 59.77690395 -54.63817148 63.6111032 -54.69335938 67.4453125 C-54.80078739 74.96347755 -54.90177328 82.48170807 -55 90 C-60.61 90 -66.22 90 -72 90 C-72 58.32 -72 26.64 -72 -6 C-66.72 -6 -61.44 -6 -56 -6 C-55.67 -1.05 -55.34 3.9 -55 9 C-54.236875 7.824375 -53.47375 6.64875 -52.6875 5.4375 C-47.51133355 -1.43557007 -39.86479588 -6.41640975 -31.30859375 -7.7890625 C-19.72481501 -8.84747883 -9.32350328 -7.4471966 0 0 Z " fill="#313030" transform="translate(855,479)"/>
<path d="M0 0 C0.89680159 19.7212136 1.28698891 39.43075078 1.53242874 59.16843414 C1.56285647 61.59087997 1.5945984 64.01330551 1.62667847 66.43572998 C1.98919825 93.95784128 2.13141609 121.47540469 2 149 C0.02 149 -1.96 149 -4 149 C-4.14099121 148.35973877 -4.28198242 147.71947754 -4.42724609 147.05981445 C-5.07212807 144.14305711 -5.72349863 141.22778562 -6.375 138.3125 C-6.59671875 137.30509766 -6.8184375 136.29769531 -7.046875 135.25976562 C-7.26601563 134.28330078 -7.48515625 133.30683594 -7.7109375 132.30078125 C-7.90993652 131.40528564 -8.10893555 130.50979004 -8.31396484 129.5871582 C-8.94493338 126.98874563 -8.94493338 126.98874563 -9.99072266 124.55737305 C-11.13468811 121.65871844 -11.78951953 118.82895477 -12.4375 115.78125 C-12.69273437 114.60175781 -12.94796875 113.42226563 -13.2109375 112.20703125 C-13.73697917 109.73567708 -14.26302083 107.26432292 -14.7890625 104.79296875 C-15.04429687 103.61347656 -15.29953125 102.43398438 -15.5625 101.21875 C-15.79066406 100.14560547 -16.01882813 99.07246094 -16.25390625 97.96679688 C-16.9565125 95.17292544 -17.91228433 92.66116375 -19 90 C-19.43831594 87.59067625 -19.82800939 85.17233943 -20.1875 82.75 C-21.5440699 74.41965596 -23.74617124 66.43000249 -26.08496094 58.32885742 C-28.72812901 49.11867864 -31.11840193 39.85831914 -33.4375 30.5625 C-33.6167099 29.84842987 -33.7959198 29.13435974 -33.9805603 28.39865112 C-34.48867571 26.3719539 -34.99317394 24.34439828 -35.49609375 22.31640625 C-35.78669678 21.14537354 -36.0772998 19.97434082 -36.37670898 18.76782227 C-37 16 -37 16 -37 14 C-36.01 14 -35.02 14 -34 14 C-34 13.34 -34 12.68 -34 12 C-33.05640625 11.69707031 -32.1128125 11.39414062 -31.140625 11.08203125 C-22.919217 8.41077293 -14.94515174 5.42049584 -7 2 C-2.26279863 0 -2.26279863 0 0 0 Z " fill="#30302F" transform="translate(448,420)"/>
<path d="M0 0 C5.61 0 11.22 0 17 0 C17 8.25 17 16.5 17 25 C25.25 25 33.5 25 42 25 C42 29.62 42 34.24 42 39 C33.75 39 25.5 39 17 39 C17.0629706 47.12807833 17.13842428 55.25574909 17.23571491 63.38347912 C17.28039737 67.15773053 17.31965788 70.93187454 17.34643555 74.70629883 C17.37249018 78.35047178 17.41290709 81.99423095 17.46318626 85.63814735 C17.47984053 87.02671464 17.4913638 88.41535348 17.49761391 89.80400658 C17.50726972 91.7525102 17.53704261 93.70088242 17.56762695 95.64916992 C17.57873001 96.7572551 17.58983307 97.86534027 17.60127258 99.00700378 C18.05008495 102.37595625 18.99307783 104.28022521 21 107 C23.32595946 108.16297973 24.78723231 108.16600691 27.375 108.1875 C28.14585937 108.20167969 28.91671875 108.21585938 29.7109375 108.23046875 C32.02688827 108.13763686 32.02688827 108.13763686 33.9765625 106.98828125 C36 106 36 106 41 106 C41 109.96 41 113.92 41 118 C32.86154448 122.65054601 25.11985674 123.04383902 16 122 C8.79041835 119.93227734 4.69269018 116.43242805 1 110 C-0.14346098 106.56961706 -0.120116 103.9436825 -0.11352539 100.32543945 C-0.11367142 99.652005 -0.11381744 98.97857056 -0.1139679 98.284729 C-0.11327175 96.06088021 -0.10549332 93.83711539 -0.09765625 91.61328125 C-0.09579101 90.07057236 -0.09436761 88.52786289 -0.09336853 86.9851532 C-0.08955169 82.92616132 -0.07972851 78.86720527 -0.06866455 74.80822754 C-0.05843252 70.66577641 -0.05386707 66.5233195 -0.04882812 62.38085938 C-0.0381055 54.25388799 -0.02051543 46.12695258 0 38 C-4.62 38 -9.24 38 -14 38 C-14 33.71 -14 29.42 -14 25 C-9.38 25 -4.76 25 0 25 C0 16.75 0 8.5 0 0 Z " fill="#353434" transform="translate(625,448)"/>
<path d="M0 0 C0 5.28 0 10.56 0 16 C-2.59875 16.061875 -5.1975 16.12375 -7.875 16.1875 C-15.04605856 16.53898902 -21.24945978 17.30613545 -27 22 C-34.96411037 30.91579651 -35.30854491 40.13097379 -35.4140625 51.58984375 C-35.43342865 52.88950577 -35.4527948 54.18916779 -35.4727478 55.5282135 C-35.52381345 58.96234179 -35.5635748 62.39650901 -35.60089111 65.83081055 C-35.64109231 69.34368315 -35.69211063 72.85639738 -35.7421875 76.36914062 C-35.83864345 83.24598402 -35.92214269 90.12292112 -36 97 C-41.61 97 -47.22 97 -53 97 C-53 65.32 -53 33.64 -53 1 C-47.72 1 -42.44 1 -37 1 C-36.505 9.415 -36.505 9.415 -36 18 C-35.154375 16.63875 -34.30875 15.2775 -33.4375 13.875 C-26.04930947 2.93016892 -13.41148575 -4.47049525 0 0 Z " fill="#323232" transform="translate(734,472)"/>
<path d="M0 0 C5.61 0 11.22 0 17 0 C17 31.68 17 63.36 17 96 C11.39 96 5.78 96 0 96 C0 64.32 0 32.64 0 0 Z " fill="#2F2F2F" transform="translate(747,473)"/>
<path d="M0 0 C5.61 0 11.22 0 17 0 C17 31.68 17 63.36 17 96 C11.39 96 5.78 96 0 96 C0 64.32 0 32.64 0 0 Z " fill="#302F2F" transform="translate(582,473)"/>
<path d="M0 0 C4.48741845 2.48615324 7.11474899 5.40674698 8.75 10.3125 C9.53369654 16.61565931 9.06533912 21.46220569 5.2890625 26.68359375 C1.47115166 30.72437756 -2.99001825 31.48627343 -8.3125 31.75 C-14.39744415 31.53762714 -17.44345647 29.16658414 -21.625 24.875 C-24.11718343 19.4113671 -23.9795706 14.21675695 -23.25 8.3125 C-21.25142685 3.75575321 -18.53764587 1.22526059 -14.16796875 -0.9921875 C-9.04045055 -2.85104339 -4.80501579 -2.18409809 0 0 Z " fill="#C73938" transform="translate(1041.25,435.6875)"/>
<path d="M0 0 C0.061875 0.99 0.12375 1.98 0.1875 3 C0.89761269 7.73088593 2.84159606 11.42151277 6 15 C10.28824606 18.07059595 14.75512501 19.4755125 20 20 C15.375 25.875 15.375 25.875 12 27 C6.81250808 27.49676139 2.38195327 27.60303415 -2.4375 25.5 C-6.72329541 21.31873618 -8.73201218 17.25875447 -9.4375 11.3125 C-8.72047753 5.88361558 -5.98002439 0 0 0 Z " fill="#333331" transform="translate(1012,452)"/>
<path d="M0 0 C2.9375 2.4375 2.9375 2.4375 5 5 C5.33 5.33 5.66 5.66 6 6 C6.5573482 11.68495163 5.58551703 14.57083191 2 19 C-1.48609888 20.74304944 -5.19640071 20.57152528 -9 20 C-12.70219508 17.45474088 -13.7681855 15.81135075 -15 11.5 C-15 6.68195587 -13.50968717 4.62151585 -10.3125 1.1875 C-6.91056203 -0.55944112 -3.68575836 -0.8117444 0 0 Z " fill="#353434" transform="translate(595,439)"/>
<path d="M0 0 C3.67204501 2.72291474 5.71107488 5.58426693 6.625 10.0625 C5.83274711 13.78608857 4.39365814 16.05922 2 19 C-1.69798008 20.23266003 -5.15521703 20.58136839 -9 20 C-11.93401712 17.74306375 -13.73237351 15.72432762 -14.30859375 12.01171875 C-14.56273972 7.42938987 -14.50338441 5.6166459 -11.5 1.9375 C-7.84255489 -0.52092419 -4.25234549 -1.33307656 0 0 Z " fill="#363535" transform="translate(760,439)"/>
</svg>
